<svg width="34" height="38" viewBox="0 0 34 38" fill="none" xmlns="http://www.w3.org/2000/svg">
<path d="M1.5814 31.9629C1.5814 34.1067 3.18256 35.8607 5.13953 35.8607C5.97138 35.8655 6.77248 35.551 7.37326 34.9837C7.53399 34.8517 7.73935 34.7844 7.94825 34.7952C8.15715 34.8061 8.35421 34.8943 8.5 35.0422C8.63845 35.1987 8.70969 35.4021 8.69862 35.6095C8.68755 35.8168 8.59504 36.0118 8.4407 36.1531C7.5369 36.963 6.36089 37.4143 5.13953 37.4199C2.31279 37.4199 0 34.9642 0 31.9629C0 28.9615 2.31279 26.5059 5.13953 26.5059C6.36089 26.5114 7.5369 26.9627 8.4407 27.7727C8.59504 27.9139 8.68755 28.1089 8.69862 28.3163C8.70969 28.5236 8.63845 28.7271 8.5 28.8836C8.35421 29.0315 8.15715 29.1197 7.94825 29.1305C7.73935 29.1413 7.53399 29.074 7.37326 28.942C6.77248 28.3747 5.97138 28.0602 5.13953 28.065C3.18256 28.065 1.5814 29.819 1.5814 31.9629ZM17.514 31.1248C15.814 30.6766 15.0233 30.3842 15.0233 29.6241C15.0233 28.5327 15.8337 27.8701 17.1977 27.8701C18.0808 27.8687 18.9406 28.149 19.6488 28.6692C19.7293 28.7357 19.8223 28.786 19.9225 28.8171C20.0226 28.8482 20.1281 28.8596 20.2327 28.8505C20.3373 28.8415 20.4391 28.8122 20.5323 28.7644C20.6254 28.7165 20.7081 28.6511 20.7756 28.5717C20.8431 28.4924 20.8941 28.4007 20.9256 28.3019C20.9572 28.2032 20.9687 28.0993 20.9595 27.9961C20.9503 27.8929 20.9206 27.7926 20.8721 27.7007C20.8236 27.6089 20.7572 27.5274 20.6767 27.4608C19.6695 26.7245 18.4515 26.322 17.1977 26.311C14.9442 26.311 13.4419 27.6362 13.4419 29.6241C13.4419 31.6121 15.4779 32.1967 17.1186 32.6255C18.7593 33.0543 19.7674 33.4051 19.7674 34.3016C19.7674 34.7888 19.7674 36.0556 17.1977 36.0556C16.3096 36.0504 15.4455 35.7709 14.7267 35.2566C14.5663 35.126 14.3602 35.063 14.153 35.0812C13.9458 35.0994 13.7542 35.1975 13.6198 35.354C13.4861 35.5153 13.4217 35.7218 13.4401 35.9293C13.4586 36.1368 13.5585 36.329 13.7186 36.4649C14.7258 37.2012 15.9439 37.6037 17.1977 37.6148C19.8267 37.6148 21.3488 36.4064 21.3488 34.3016C21.3488 32.1967 19.2337 31.5536 17.514 31.1248ZM30.1651 31.1248C28.4651 30.6766 27.6744 30.3842 27.6744 29.6241C27.6744 28.5327 28.4849 27.8701 29.8488 27.8701C30.7319 27.8687 31.5918 28.149 32.3 28.6692C32.4625 28.8036 32.6725 28.8688 32.8838 28.8505C33.0951 28.8322 33.2904 28.732 33.4267 28.5717C33.5631 28.4115 33.6292 28.2044 33.6107 27.9961C33.5921 27.7878 33.4904 27.5952 33.3279 27.4608C32.3207 26.7245 31.1027 26.322 29.8488 26.311C27.5953 26.311 26.093 27.6362 26.093 29.6241C26.093 31.6121 28.1291 32.1967 29.7698 32.6255C31.4105 33.0543 32.4186 33.4051 32.4186 34.3016C32.4186 34.7888 32.4186 36.0556 29.8488 36.0556C28.9607 36.0504 28.0966 35.7709 27.3779 35.2566C27.2175 35.126 27.0113 35.063 26.8041 35.0812C26.5969 35.0994 26.4053 35.1975 26.2709 35.354C26.1373 35.5153 26.0728 35.7218 26.0913 35.9293C26.1098 36.1368 26.2097 36.329 26.3698 36.4649C27.377 37.2012 28.595 37.6037 29.8488 37.6148C32.4779 37.6148 34 36.4064 34 34.3016C34 32.1967 31.8849 31.5536 30.1651 31.1248ZM34 11.7134V19.4897C34 19.6964 33.9167 19.8947 33.7684 20.0409C33.6201 20.1871 33.419 20.2693 33.2093 20.2693C32.9996 20.2693 32.7985 20.1871 32.6502 20.0409C32.5019 19.8947 32.4186 19.6964 32.4186 19.4897V12.4735H22.1395C21.9298 12.4735 21.7287 12.3914 21.5804 12.2452C21.4321 12.099 21.3488 11.9007 21.3488 11.694V1.55951H3.16279C2.95308 1.55951 2.75197 1.64164 2.60368 1.78784C2.4554 1.93404 2.37209 2.13232 2.37209 2.33908V19.4897C2.37209 19.6964 2.28879 19.8947 2.1405 20.0409C1.99222 20.1871 1.7911 20.2693 1.5814 20.2693C1.37169 20.2693 1.17057 20.1871 1.02229 20.0409C0.874003 19.8947 0.790698 19.6964 0.790698 19.4897V2.33908C0.790698 1.71881 1.04061 1.12395 1.48547 0.685354C1.93032 0.246759 2.53367 0.000358567 3.16279 0.000358567H22.1395C22.2435 -0.00292034 22.347 0.0163217 22.4426 0.0567291C22.5382 0.0971366 22.6237 0.157727 22.693 0.234231L33.7628 11.1288C33.9081 11.283 33.9923 11.4836 34 11.694V11.7134ZM22.9302 10.9144H31.2919L22.9302 2.6704V10.9144Z" fill="#646161"/>
</svg>
