<svg width="256" height="256" viewBox="0 0 256 256" fill="none" xmlns="http://www.w3.org/2000/svg">
<path d="M178.9 94C186.556 90.1788 192.698 83.8856 196.332 76.1392C199.966 68.3927 200.879 59.6466 198.924 51.3165C196.969 42.9864 192.26 35.56 185.558 30.2395C178.857 24.919 170.557 22.0159 162 22H94.0001C85.4437 22.0159 77.143 24.919 70.4418 30.2395C63.7406 35.56 59.0312 42.9864 57.076 51.3165C55.1207 59.6466 56.0341 68.3927 59.6681 76.1392C63.3022 83.8856 69.4443 90.1788 77.1001 94C70.7512 97.1269 65.4046 101.969 61.6659 107.978C57.9271 113.987 55.9456 120.923 55.9456 128C55.9456 135.077 57.9271 142.013 61.6659 148.022C65.4046 154.031 70.7512 158.873 77.1001 162C71.0339 165.012 65.8829 169.591 62.1805 175.262C58.478 180.934 56.3587 187.492 56.0417 194.257C55.7248 201.023 57.2219 207.75 60.378 213.743C63.5341 219.735 68.2345 224.775 73.9926 228.341C79.7507 231.907 86.3573 233.87 93.1284 234.025C99.8996 234.18 106.589 232.523 112.505 229.225C118.42 225.927 123.347 221.108 126.775 215.266C130.202 209.424 132.006 202.773 132 196V151.3C135.495 155.825 139.966 159.503 145.081 162.06C150.195 164.617 155.82 165.987 161.537 166.068C167.255 166.149 172.916 164.938 178.101 162.527C183.285 160.115 187.858 156.565 191.48 152.14C195.102 147.716 197.678 142.531 199.017 136.972C200.356 131.413 200.424 125.624 199.215 120.036C198.006 114.447 195.551 109.204 192.033 104.696C188.516 100.188 184.027 96.5318 178.9 94ZM192 60C192 67.9565 188.839 75.5871 183.213 81.2132C177.587 86.8393 169.957 90 162 90H132V30H162C169.948 30.0264 177.564 33.1955 183.184 38.8159C188.805 44.4363 191.974 52.0516 192 60ZM138.7 98C136.224 99.9766 133.977 102.224 132 104.7V98H138.7ZM64.0001 60C64.0265 52.0516 67.1956 44.4363 72.816 38.8159C78.4364 33.1955 86.0517 30.0264 94.0001 30H124V90H94.0001C86.0436 90 78.413 86.8393 72.7869 81.2132C67.1608 75.5871 64.0001 67.9565 64.0001 60ZM94.0001 226C86.0436 226 78.413 222.839 72.7869 217.213C67.1608 211.587 64.0001 203.956 64.0001 196C64.0001 188.044 67.1608 180.413 72.7869 174.787C78.413 169.161 86.0436 166 94.0001 166H124V196C123.974 203.948 120.805 211.564 115.184 217.184C109.564 222.804 101.948 225.974 94.0001 226ZM124 158H94.0001C86.0436 158 78.413 154.839 72.7869 149.213C67.1608 143.587 64.0001 135.956 64.0001 128C64.0001 120.044 67.1608 112.413 72.7869 106.787C78.413 101.161 86.0436 98 94.0001 98H124V158ZM162 158C154.044 158 146.413 154.839 140.787 149.213C135.161 143.587 132 135.956 132 128C132 120.044 135.161 112.413 140.787 106.787C146.413 101.161 154.044 98 162 98C169.957 98 177.587 101.161 183.213 106.787C188.839 112.413 192 120.044 192 128C192 135.956 188.839 143.587 183.213 149.213C177.587 154.839 169.957 158 162 158Z" fill="black"/>
</svg>
