<svg width="40" height="36" viewBox="0 0 40 36" fill="none" xmlns="http://www.w3.org/2000/svg">
<mask id="path-1-inside-1_89_12" fill="white">
<path d="M17.7656 27.7569C17.7656 27.9497 17.6883 28.1346 17.5505 28.2709C17.4128 28.4072 17.226 28.4838 17.0312 28.4838H14.8281V35.0262C14.8281 35.219 14.7508 35.4039 14.613 35.5402C14.4753 35.6765 14.2885 35.7531 14.0938 35.7531C13.899 35.7531 13.7122 35.6765 13.5745 35.5402C13.4367 35.4039 13.3594 35.219 13.3594 35.0262V28.4838H11.1562C10.9615 28.4838 10.7747 28.4072 10.637 28.2709C10.4992 28.1346 10.4219 27.9497 10.4219 27.7569C10.4219 27.5641 10.4992 27.3792 10.637 27.2428C10.7747 27.1065 10.9615 27.0299 11.1562 27.0299H17.0312C17.226 27.0299 17.4128 27.1065 17.5505 27.2428C17.6883 27.3792 17.7656 27.5641 17.7656 27.7569ZM6.75 27.0299C6.55523 27.0299 6.36844 27.1065 6.23072 27.2428C6.093 27.3792 6.01562 27.5641 6.01562 27.7569V30.6646H2.34375V27.7569C2.34375 27.5641 2.26638 27.3792 2.12866 27.2428C1.99093 27.1065 1.80414 27.0299 1.60938 27.0299C1.41461 27.0299 1.22782 27.1065 1.09009 27.2428C0.952372 27.3792 0.875 27.5641 0.875 27.7569V35.0262C0.875 35.219 0.952372 35.4039 1.09009 35.5402C1.22782 35.6765 1.41461 35.7531 1.60938 35.7531C1.80414 35.7531 1.99093 35.6765 2.12866 35.5402C2.26638 35.4039 2.34375 35.219 2.34375 35.0262V32.1184H6.01562V35.0262C6.01562 35.219 6.093 35.4039 6.23072 35.5402C6.36844 35.6765 6.55523 35.7531 6.75 35.7531C6.94477 35.7531 7.13156 35.6765 7.26928 35.5402C7.407 35.4039 7.48438 35.219 7.48438 35.0262V27.7569C7.48438 27.5641 7.407 27.3792 7.26928 27.2428C7.13156 27.1065 6.94477 27.0299 6.75 27.0299ZM38.3281 34.2992H34.6562V27.7569C34.6562 27.5641 34.5789 27.3792 34.4412 27.2428C34.3034 27.1065 34.1166 27.0299 33.9219 27.0299C33.7271 27.0299 33.5403 27.1065 33.4026 27.2428C33.2649 27.3792 33.1875 27.5641 33.1875 27.7569V35.0262C33.1875 35.219 33.2649 35.4039 33.4026 35.5402C33.5403 35.6765 33.7271 35.7531 33.9219 35.7531H38.3281C38.5229 35.7531 38.7097 35.6765 38.8474 35.5402C38.9851 35.4039 39.0625 35.219 39.0625 35.0262C39.0625 34.8334 38.9851 34.6485 38.8474 34.5121C38.7097 34.3758 38.5229 34.2992 38.3281 34.2992ZM29.0016 27.0663C28.8521 27.024 28.6933 27.0274 28.5459 27.0761C28.3985 27.1247 28.2693 27.2163 28.1754 27.3389L25.1094 31.5914L22.0434 27.3389C21.9494 27.2163 21.8203 27.1247 21.6729 27.0761C21.5254 27.0274 21.3666 27.024 21.2172 27.0663C21.0686 27.1125 20.9387 27.2044 20.8463 27.3285C20.7539 27.4527 20.7037 27.6027 20.7031 27.7569V35.0262C20.7031 35.219 20.7805 35.4039 20.9182 35.5402C21.0559 35.6765 21.2427 35.7531 21.4375 35.7531C21.6323 35.7531 21.8191 35.6765 21.9568 35.5402C22.0945 35.4039 22.1719 35.219 22.1719 35.0262V30.0285L24.5035 33.2634C24.5735 33.3573 24.6648 33.4336 24.77 33.4863C24.8752 33.5389 24.9915 33.5663 25.1094 33.5663C25.2273 33.5663 25.3435 33.5389 25.4488 33.4863C25.554 33.4336 25.6453 33.3573 25.7152 33.2634L28.0469 30.0285V35.0262C28.0469 35.219 28.1242 35.4039 28.262 35.5402C28.3997 35.6765 28.5865 35.7531 28.7812 35.7531C28.976 35.7531 29.1628 35.6765 29.3005 35.5402C29.4383 35.4039 29.5156 35.219 29.5156 35.0262V27.7569C29.515 27.6027 29.4649 27.4527 29.3725 27.3285C29.2801 27.2044 29.1502 27.1125 29.0016 27.0663ZM33.1875 21.2145C32.9927 21.2145 32.8059 21.1379 32.6682 21.0016C32.5305 20.8652 32.4531 20.6804 32.4531 20.4876V12.4913H22.9062C22.7115 12.4913 22.5247 12.4147 22.387 12.2784C22.2492 12.1421 22.1719 11.9572 22.1719 11.7644V2.3143H5.28125C5.08648 2.3143 4.89969 2.39089 4.76197 2.52722C4.62425 2.66354 4.54688 2.84844 4.54688 3.04123V20.4876C4.54688 20.6804 4.4695 20.8652 4.33178 21.0016C4.19406 21.1379 4.00727 21.2145 3.8125 21.2145C3.61773 21.2145 3.43094 21.1379 3.29322 21.0016C3.1555 20.8652 3.07812 20.6804 3.07812 20.4876V3.04123C3.07812 2.46285 3.31024 1.90816 3.72341 1.49918C4.13657 1.0902 4.69694 0.860442 5.28125 0.860442H22.9062C23.0028 0.857384 23.0989 0.875327 23.1877 0.913006C23.2766 0.950685 23.3559 1.00718 23.4203 1.07852L33.7016 11.2374C33.8365 11.3812 33.9147 11.5682 33.9219 11.7644V20.4876C33.9219 20.6804 33.8445 20.8652 33.7068 21.0016C33.5691 21.1379 33.3823 21.2145 33.1875 21.2145ZM23.6406 11.0375H31.4066L23.6406 3.35018V11.0375Z"/>
</mask>
<path d="M17.7656 27.7569C17.7656 27.9497 17.6883 28.1346 17.5505 28.2709C17.4128 28.4072 17.226 28.4838 17.0312 28.4838H14.8281V35.0262C14.8281 35.219 14.7508 35.4039 14.613 35.5402C14.4753 35.6765 14.2885 35.7531 14.0938 35.7531C13.899 35.7531 13.7122 35.6765 13.5745 35.5402C13.4367 35.4039 13.3594 35.219 13.3594 35.0262V28.4838H11.1562C10.9615 28.4838 10.7747 28.4072 10.637 28.2709C10.4992 28.1346 10.4219 27.9497 10.4219 27.7569C10.4219 27.5641 10.4992 27.3792 10.637 27.2428C10.7747 27.1065 10.9615 27.0299 11.1562 27.0299H17.0312C17.226 27.0299 17.4128 27.1065 17.5505 27.2428C17.6883 27.3792 17.7656 27.5641 17.7656 27.7569ZM6.75 27.0299C6.55523 27.0299 6.36844 27.1065 6.23072 27.2428C6.093 27.3792 6.01562 27.5641 6.01562 27.7569V30.6646H2.34375V27.7569C2.34375 27.5641 2.26638 27.3792 2.12866 27.2428C1.99093 27.1065 1.80414 27.0299 1.60938 27.0299C1.41461 27.0299 1.22782 27.1065 1.09009 27.2428C0.952372 27.3792 0.875 27.5641 0.875 27.7569V35.0262C0.875 35.219 0.952372 35.4039 1.09009 35.5402C1.22782 35.6765 1.41461 35.7531 1.60938 35.7531C1.80414 35.7531 1.99093 35.6765 2.12866 35.5402C2.26638 35.4039 2.34375 35.219 2.34375 35.0262V32.1184H6.01562V35.0262C6.01562 35.219 6.093 35.4039 6.23072 35.5402C6.36844 35.6765 6.55523 35.7531 6.75 35.7531C6.94477 35.7531 7.13156 35.6765 7.26928 35.5402C7.407 35.4039 7.48438 35.219 7.48438 35.0262V27.7569C7.48438 27.5641 7.407 27.3792 7.26928 27.2428C7.13156 27.1065 6.94477 27.0299 6.75 27.0299ZM38.3281 34.2992H34.6562V27.7569C34.6562 27.5641 34.5789 27.3792 34.4412 27.2428C34.3034 27.1065 34.1166 27.0299 33.9219 27.0299C33.7271 27.0299 33.5403 27.1065 33.4026 27.2428C33.2649 27.3792 33.1875 27.5641 33.1875 27.7569V35.0262C33.1875 35.219 33.2649 35.4039 33.4026 35.5402C33.5403 35.6765 33.7271 35.7531 33.9219 35.7531H38.3281C38.5229 35.7531 38.7097 35.6765 38.8474 35.5402C38.9851 35.4039 39.0625 35.219 39.0625 35.0262C39.0625 34.8334 38.9851 34.6485 38.8474 34.5121C38.7097 34.3758 38.5229 34.2992 38.3281 34.2992ZM29.0016 27.0663C28.8521 27.024 28.6933 27.0274 28.5459 27.0761C28.3985 27.1247 28.2693 27.2163 28.1754 27.3389L25.1094 31.5914L22.0434 27.3389C21.9494 27.2163 21.8203 27.1247 21.6729 27.0761C21.5254 27.0274 21.3666 27.024 21.2172 27.0663C21.0686 27.1125 20.9387 27.2044 20.8463 27.3285C20.7539 27.4527 20.7037 27.6027 20.7031 27.7569V35.0262C20.7031 35.219 20.7805 35.4039 20.9182 35.5402C21.0559 35.6765 21.2427 35.7531 21.4375 35.7531C21.6323 35.7531 21.8191 35.6765 21.9568 35.5402C22.0945 35.4039 22.1719 35.219 22.1719 35.0262V30.0285L24.5035 33.2634C24.5735 33.3573 24.6648 33.4336 24.77 33.4863C24.8752 33.5389 24.9915 33.5663 25.1094 33.5663C25.2273 33.5663 25.3435 33.5389 25.4488 33.4863C25.554 33.4336 25.6453 33.3573 25.7152 33.2634L28.0469 30.0285V35.0262C28.0469 35.219 28.1242 35.4039 28.262 35.5402C28.3997 35.6765 28.5865 35.7531 28.7812 35.7531C28.976 35.7531 29.1628 35.6765 29.3005 35.5402C29.4383 35.4039 29.5156 35.219 29.5156 35.0262V27.7569C29.515 27.6027 29.4649 27.4527 29.3725 27.3285C29.2801 27.2044 29.1502 27.1125 29.0016 27.0663ZM33.1875 21.2145C32.9927 21.2145 32.8059 21.1379 32.6682 21.0016C32.5305 20.8652 32.4531 20.6804 32.4531 20.4876V12.4913H22.9062C22.7115 12.4913 22.5247 12.4147 22.387 12.2784C22.2492 12.1421 22.1719 11.9572 22.1719 11.7644V2.3143H5.28125C5.08648 2.3143 4.89969 2.39089 4.76197 2.52722C4.62425 2.66354 4.54688 2.84844 4.54688 3.04123V20.4876C4.54688 20.6804 4.4695 20.8652 4.33178 21.0016C4.19406 21.1379 4.00727 21.2145 3.8125 21.2145C3.61773 21.2145 3.43094 21.1379 3.29322 21.0016C3.1555 20.8652 3.07812 20.6804 3.07812 20.4876V3.04123C3.07812 2.46285 3.31024 1.90816 3.72341 1.49918C4.13657 1.0902 4.69694 0.860442 5.28125 0.860442H22.9062C23.0028 0.857384 23.0989 0.875327 23.1877 0.913006C23.2766 0.950685 23.3559 1.00718 23.4203 1.07852L33.7016 11.2374C33.8365 11.3812 33.9147 11.5682 33.9219 11.7644V20.4876C33.9219 20.6804 33.8445 20.8652 33.7068 21.0016C33.5691 21.1379 33.3823 21.2145 33.1875 21.2145ZM23.6406 11.0375H31.4066L23.6406 3.35018V11.0375Z" fill="#646161" stroke="#646161" stroke-width="2" mask="url(#path-1-inside-1_89_12)"/>
</svg>
