<svg width="36" height="35" viewBox="0 0 36 35" fill="none" xmlns="http://www.w3.org/2000/svg">
<path d="M0 0V34.6452H36V0H0ZM1.49962 1.48029H34.4993V33.1638H1.49962V1.48029ZM12.4864 19.6191L11.2972 24.0555C11.2736 24.1832 11.2264 24.2054 11.0801 24.2054H8.87737C8.7255 24.2054 8.70187 24.1588 8.7255 23.9911L12.9847 9.26596C13.0612 8.99944 13.1074 8.76291 13.131 8.02776C13.131 7.92893 13.1839 7.88339 13.2604 7.88339H16.4014C16.5015 7.88339 16.5532 7.90671 16.5769 8.02776L21.3525 24.0144C21.3818 24.1355 21.3525 24.2054 21.2299 24.2054H18.7571C18.6278 24.2054 18.558 24.1766 18.5344 24.0777L17.2924 19.618H12.4819L12.4864 19.6191ZM16.6702 17.2127C16.2484 15.5758 15.2584 11.99 14.8894 10.2543H14.8601C14.544 11.9833 13.7464 14.9162 13.1321 17.2127H16.6702ZM23.4202 8.98278C23.4202 8.02887 24.0885 7.46696 24.9559 7.46696C25.8705 7.46696 26.4915 8.07995 26.4915 8.98278C26.4915 9.96002 25.8469 10.4986 24.9266 10.4986C24.03 10.4986 23.4146 9.96113 23.4146 8.98278H23.4202ZM23.5901 12.3487C23.5901 12.2332 23.6374 12.1866 23.76 12.1866H26.1158C26.2508 12.1866 26.2969 12.2332 26.2969 12.3598V24.0489C26.2969 24.1699 26.2733 24.2165 26.1214 24.2165H23.8005C23.6486 24.2165 23.6014 24.1466 23.6014 24.0255V12.3476L23.5901 12.3487Z" fill="#646161"/>
<path d="M1.49962 1.43029H1.44963V1.48029V33.1638V33.2138H1.49962H34.4993H34.5493V33.1638V1.48029V1.43029H34.4993H1.49962ZM16.529 8.04207L21.3042 24.0274C21.3178 24.0844 21.3136 24.1152 21.3049 24.1302C21.2988 24.1406 21.283 24.1554 21.2299 24.1554H18.7571C18.6945 24.1554 18.655 24.1481 18.6297 24.1346C18.6079 24.1229 18.5921 24.1043 18.583 24.0661L18.583 24.0661L18.5825 24.0643L17.3405 19.6046L17.3304 19.568H17.2924H12.4819L12.476 19.6163L12.4381 19.6061L11.249 24.0426L11.2488 24.0425L11.2481 24.0464C11.2369 24.1069 11.2225 24.1266 11.2074 24.1365C11.1883 24.1489 11.1545 24.1554 11.0801 24.1554H8.87737C8.80059 24.1554 8.78305 24.1421 8.77711 24.1332C8.7733 24.1276 8.76891 24.1164 8.76785 24.0931C8.76683 24.0705 8.76909 24.0409 8.77453 24.0016L13.0328 9.27985L13.0328 9.27975C13.1109 9.00776 13.1573 8.7667 13.181 8.02936L13.181 8.02937V8.02776C13.181 7.98695 13.1918 7.96487 13.2031 7.95314C13.2141 7.94162 13.232 7.93339 13.2604 7.93339H16.4014C16.4497 7.93339 16.4735 7.9396 16.4881 7.95042C16.5017 7.96042 16.5169 7.98165 16.5278 8.03734L16.5276 8.03738L16.529 8.04207ZM16.6702 17.2627H16.7348L16.7187 17.2002C16.6013 16.7447 16.4401 16.139 16.2606 15.4646C15.7943 13.7124 15.2045 11.4962 14.9383 10.2439L14.9299 10.2043H14.8894H14.8601H14.8184L14.8109 10.2453C14.5189 11.8424 13.8152 14.4694 13.2248 16.673C13.177 16.8516 13.1299 17.0275 13.0838 17.1997L13.067 17.2627H13.1321H16.6702ZM23.4652 9.03278H23.4702V8.98278C23.4702 8.5181 23.6327 8.15282 23.8971 7.90353C24.1619 7.65385 24.5329 7.51696 24.9559 7.51696C25.4018 7.51696 25.7725 7.66619 26.0315 7.92189C26.2905 8.17754 26.4415 8.54316 26.4415 8.98278C26.4415 9.45992 26.2845 9.82472 26.0201 10.0705C25.7552 10.3168 25.3772 10.4486 24.9266 10.4486C24.4882 10.4486 24.1237 10.3173 23.8691 10.0716C23.6237 9.83477 23.4753 9.48669 23.4652 9.03278ZM23.6514 12.2924L23.6462 12.2929C23.6506 12.2768 23.6569 12.2669 23.6637 12.2604C23.6768 12.2478 23.7031 12.2366 23.76 12.2366H26.1158C26.18 12.2366 26.2083 12.2482 26.2222 12.2616C26.2355 12.2746 26.2469 12.3003 26.2469 12.3598V24.0489C26.2469 24.1108 26.2395 24.1333 26.2294 24.1441C26.2202 24.154 26.1963 24.1665 26.1214 24.1665H23.8005C23.7311 24.1665 23.6977 24.1504 23.6803 24.1321C23.6625 24.1132 23.6514 24.0811 23.6514 24.0255V12.3476V12.2924ZM0.05 34.5952V0.05H35.95V34.5952H0.05Z" stroke="#646161" stroke-opacity="0.8" stroke-width="0.1"/>
</svg>
