<svg width="36" height="36" viewBox="0 0 36 36" fill="none" xmlns="http://www.w3.org/2000/svg">
<path d="M21.8571 16.7143C21.8571 15.6913 22.2635 14.7102 22.9869 13.9869C23.7102 13.2635 24.6913 12.8571 25.7143 12.8571H29.5714C29.9124 12.8571 30.2394 12.9926 30.4806 13.2337C30.7217 13.4748 30.8571 13.8019 30.8571 14.1429C30.8571 14.4838 30.7217 14.8109 30.4806 15.052C30.2394 15.2931 29.9124 15.4286 29.5714 15.4286H25.7143C25.3733 15.4286 25.0463 15.564 24.8051 15.8051C24.564 16.0463 24.4286 16.3733 24.4286 16.7143V19.2857C24.4286 19.6267 24.564 19.9537 24.8051 20.1949C25.0463 20.436 25.3733 20.5714 25.7143 20.5714H27C28.023 20.5714 29.0041 20.9778 29.7274 21.7012C30.4508 22.4245 30.8571 23.4056 30.8571 24.4286V27C30.8571 28.023 30.4508 29.0041 29.7274 29.7274C29.0041 30.4508 28.023 30.8571 27 30.8571H23.1429C22.8019 30.8571 22.4748 30.7217 22.2337 30.4806C21.9926 30.2394 21.8571 29.9124 21.8571 29.5714C21.8571 29.2304 21.9926 28.9034 22.2337 28.6623C22.4748 28.4212 22.8019 28.2857 23.1429 28.2857H27C27.341 28.2857 27.668 28.1503 27.9091 27.9091C28.1503 27.668 28.2857 27.341 28.2857 27V24.4286C28.2857 24.0876 28.1503 23.7606 27.9091 23.5194C27.668 23.2783 27.341 23.1429 27 23.1429H25.7143C24.6913 23.1429 23.7102 22.7365 22.9869 22.0131C22.2635 21.2898 21.8571 20.3087 21.8571 19.2857V16.7143ZM20.5714 14.1429C20.5714 13.8019 20.436 13.4748 20.1949 13.2337C19.9537 12.9926 19.6267 12.8571 19.2857 12.8571C18.9447 12.8571 18.6177 12.9926 18.3766 13.2337C18.1355 13.4748 18 13.8019 18 14.1429V27C18 27.341 17.8645 27.668 17.6234 27.9091C17.3823 28.1503 17.0553 28.2857 16.7143 28.2857H14.1429C13.8019 28.2857 13.4748 28.4212 13.2337 28.6623C12.9926 28.9034 12.8571 29.2304 12.8571 29.5714C12.8571 29.9124 12.9926 30.2394 13.2337 30.4806C13.4748 30.7217 13.8019 30.8571 14.1429 30.8571H16.7143C17.7373 30.8571 18.7183 30.4508 19.4417 29.7274C20.1651 29.0041 20.5714 28.023 20.5714 27V14.1429ZM0 7.71429V28.2857C0 30.3317 0.812753 32.2938 2.25946 33.7405C3.70617 35.1872 5.66833 36 7.71429 36H28.2857C30.3317 36 32.2938 35.1872 33.7405 33.7405C35.1872 32.2938 36 30.3317 36 28.2857V7.71429C36 5.66833 35.1872 3.70617 33.7405 2.25946C32.2938 0.812753 30.3317 0 28.2857 0H7.71429C5.66833 0 3.70617 0.812753 2.25946 2.25946C0.812753 3.70617 0 5.66833 0 7.71429ZM7.71429 2.57143H28.2857C29.6497 2.57143 30.9578 3.11326 31.9223 4.07774C32.8867 5.04221 33.4286 6.35032 33.4286 7.71429V28.2857C33.4286 29.6497 32.8867 30.9578 31.9223 31.9223C30.9578 32.8867 29.6497 33.4286 28.2857 33.4286H7.71429C6.35032 33.4286 5.04221 32.8867 4.07774 31.9223C3.11326 30.9578 2.57143 29.6497 2.57143 28.2857V7.71429C2.57143 6.35032 3.11326 5.04221 4.07774 4.07774C5.04221 3.11326 6.35032 2.57143 7.71429 2.57143Z" fill="#646161"/>
</svg>
