<svg width="19" height="18" viewBox="0 0 19 18" fill="none" xmlns="http://www.w3.org/2000/svg">
<path d="M8.8421 1.72236C8.90963 1.63323 8.9972 1.56089 9.09787 1.51106C9.19854 1.46124 9.30955 1.4353 9.4221 1.4353C9.53465 1.4353 9.64566 1.46124 9.74633 1.51106C9.847 1.56089 9.93457 1.63323 10.0021 1.72236L16.5257 10.3356C16.6064 10.4422 16.6556 10.569 16.6677 10.7017C16.6798 10.8345 16.6543 10.9679 16.5941 11.0871C16.5339 11.2063 16.4413 11.3066 16.3268 11.3767C16.2123 11.4467 16.0803 11.4838 15.9457 11.4838H2.90435C2.76971 11.4838 2.63773 11.4467 2.52319 11.3767C2.40866 11.3066 2.3161 11.2063 2.25589 11.0871C2.19568 10.9679 2.17019 10.8345 2.18228 10.7017C2.19437 10.569 2.24357 10.4422 2.32435 10.3356L8.8421 1.7238V1.72236ZM11.1621 0.86118C10.2921 -0.28706 8.5521 -0.28706 7.6821 0.86118L1.1629 9.47585C0.0899 10.8954 1.11215 12.9206 2.9029 12.9206H15.9457C17.7379 12.9206 18.7601 10.8939 17.6856 9.47585L11.1636 0.86118H11.1621ZM0.725 15.7883C0.532718 15.7883 0.348312 15.8639 0.212348 15.9985C0.0763839 16.1331 0 16.3156 0 16.506C0 16.6963 0.0763839 16.8788 0.212348 17.0134C0.348312 17.148 0.532718 17.2236 0.725 17.2236H18.125C18.3173 17.2236 18.5017 17.148 18.6377 17.0134C18.7736 16.8788 18.85 16.6963 18.85 16.506C18.85 16.3156 18.7736 16.1331 18.6377 15.9985C18.5017 15.8639 18.3173 15.7883 18.125 15.7883H0.725Z" fill="#838080"/>
</svg>
