<svg width="36" height="35" viewBox="0 0 36 35" fill="none" xmlns="http://www.w3.org/2000/svg">
<path d="M0 0V34.6452H36V0H0ZM1.49962 1.48029H34.4993V33.1638H1.49962V1.48029ZM8.70075 8.11438C8.70075 8.01554 8.91225 7.94114 9.03487 7.94114C10.3234 7.88734 11.613 7.86216 12.9026 7.86563C17.0629 7.86563 18.6795 10.1155 18.6795 12.9961C18.6795 16.7618 15.9143 18.3753 12.5269 18.3753C11.9531 18.3753 11.7596 18.3465 11.3614 18.3465V24.0377C11.3614 24.1588 11.3141 24.211 11.1915 24.211H8.87063C8.748 24.211 8.70075 24.1643 8.70075 24.0433V8.11438ZM11.3614 15.9811C11.7067 16.0044 11.9824 16.0044 12.5798 16.0044C14.3314 16.0044 15.984 15.3914 15.984 13.0494C15.984 11.1693 14.8005 10.2154 12.7969 10.2154C12.2051 10.2154 11.637 10.2388 11.3614 10.2621V15.9811ZM24.2752 14.2165C23.0861 14.2165 22.6879 14.8062 22.6879 15.2926C22.6879 15.8301 22.9579 16.1954 24.5452 17.005C26.8954 18.1333 27.639 19.2027 27.639 20.7929C27.639 23.1582 25.8053 24.4309 23.3325 24.4309C22.0196 24.4309 20.9014 24.1588 20.2568 23.7945C20.1634 23.7479 20.1398 23.6735 20.1398 23.5513V21.377C20.1398 21.2326 20.2106 21.1804 20.3096 21.256C21.2075 21.8322 22.2559 22.1378 23.3269 22.1355C24.516 22.1355 25.0087 21.6491 25.0087 20.985C25.0087 20.4475 24.6634 19.9844 23.157 19.2038C21.024 18.1977 20.133 17.1738 20.133 15.4614C20.133 13.5525 21.645 11.9678 24.264 11.9678C25.5533 11.9678 26.4611 12.1643 26.9595 12.3787C27.0821 12.4542 27.1057 12.5752 27.1057 12.6741V14.704C27.1057 14.8251 27.0292 14.9006 26.883 14.8484C26.2148 14.4608 25.2304 14.2121 24.2696 14.2121L24.2752 14.2165Z" fill="#646161"/>
</svg>
