<svg width="48" height="25" viewBox="0 0 48 25" fill="none" xmlns="http://www.w3.org/2000/svg">
<path d="M24 1.23512C36.855 1.23512 46.74 6.54321 46.74 12.3733C46.74 18.2034 36.8475 23.5114 24 23.5114C11.145 23.5114 1.26 18.2034 1.26 12.3733C1.26 6.54321 11.1525 1.23512 24 1.23512ZM24 0C10.7475 0 0 5.536 0 12.3733C0 19.2106 10.7475 24.7466 24 24.7466C37.2525 24.7466 48 19.2106 48 12.3733C48 5.536 37.2525 0 24 0ZM16.365 11.3808C15.7725 14.3583 13.68 14.0495 11.1075 14.0495L12.135 8.85906C14.985 8.85906 16.92 8.55764 16.365 11.3808ZM7.305 19.3061H10.0575L10.71 16.0125C13.7925 16.0125 15.705 16.233 17.475 14.6083C19.4325 12.8438 19.9425 9.70453 18.5475 8.13122C17.82 7.30781 16.65 6.90345 15.06 6.90345H9.7575L7.305 19.3061ZM21.2325 3.60244H23.97L23.3175 6.8961C25.68 6.8961 27.87 6.72701 28.9275 7.68276C30.0375 8.68262 29.505 9.96185 28.305 15.9978H25.53C26.685 10.1604 26.9025 9.67513 26.4825 9.23401C26.0775 8.8076 25.155 8.89582 22.9275 8.89582L21.5175 15.9978H18.78L21.2325 3.60244ZM37.875 11.3808C37.275 14.4024 35.1225 14.0495 32.6175 14.0495L33.645 8.85906C36.51 8.85906 38.43 8.55764 37.875 11.3808ZM28.815 19.3061H31.575L32.2275 16.0125C35.4675 16.0125 37.26 16.1963 38.9925 14.6083C40.95 12.8438 41.46 9.70453 40.065 8.13122C39.3375 7.30781 38.1675 6.90345 36.5775 6.90345H31.275L28.815 19.3061Z" fill="#646161"/>
</svg>
